<?xml version="1.0" encoding="UTF-8" standalone="no"?>
<!DOCTYPE svg PUBLIC "-//W3C//DTD SVG 1.1//EN" "http://www.w3.org/Graphics/SVG/1.1/DTD/svg11.dtd">
<svg width="100%" height="100%" viewBox="0 0 192 60" version="1.1" xmlns="http://www.w3.org/2000/svg" xmlns:xlink="http://www.w3.org/1999/xlink" xml:space="preserve" xmlns:serif="http://www.serif.com/" style="fill-rule:evenodd;clip-rule:evenodd;stroke-linejoin:round;stroke-miterlimit:2;">
    <rect x="132" y="0" width="60" height="60" style="fill:rgb(0,86,164);fill-rule:nonzero;"/>
    <rect x="0" y="0" width="128" height="60" style="fill-rule:nonzero;"/>
    <path d="M13.64,46L13.64,12.11L19.16,12.11L19.16,20.85L19,25.41C20.005,24.471 21.108,23.643 22.29,22.94C23.581,22.197 25.051,21.823 26.54,21.86C29.067,21.86 30.907,22.667 32.06,24.28C33.213,25.893 33.79,28.207 33.79,31.22L33.79,46L28.24,46L28.24,31.94C28.36,30.509 28.061,29.074 27.38,27.81C26.698,26.962 25.634,26.511 24.55,26.61C23.595,26.593 22.654,26.849 21.84,27.35C20.884,27.988 19.993,28.718 19.18,29.53L19.18,46L13.64,46ZM50.51,46.58C48.967,46.587 47.437,46.302 46,45.74C43.142,44.625 40.894,42.337 39.83,39.46C39.213,37.794 38.911,36.027 38.94,34.25C38.911,32.481 39.22,30.723 39.85,29.07C40.401,27.631 41.222,26.31 42.27,25.18C43.256,24.14 44.439,23.308 45.75,22.73C47.009,22.167 48.371,21.874 49.75,21.87C51.199,21.838 52.638,22.118 53.97,22.69C55.147,23.212 56.185,24.003 57,25C57.846,26.049 58.475,27.256 58.85,28.55C59.279,30.014 59.488,31.534 59.47,33.06C59.473,33.574 59.45,34.088 59.4,34.6C59.367,34.986 59.31,35.371 59.23,35.75L44.23,35.75C44.359,37.589 45.152,39.32 46.46,40.62C47.758,41.776 49.454,42.385 51.19,42.32C52.163,42.33 53.13,42.174 54.05,41.86C54.967,41.533 55.845,41.107 56.67,40.59L58.58,44C57.413,44.759 56.157,45.37 54.84,45.82C53.45,46.314 51.986,46.571 50.51,46.58ZM44.22,32L54.68,32C54.766,30.477 54.351,28.966 53.5,27.7C52.623,26.619 51.268,26.035 49.88,26.14C48.499,26.131 47.169,26.666 46.18,27.63C45.043,28.817 44.35,30.361 44.22,32ZM64.76,46L64.76,22.43L70.28,22.43L70.28,46L64.76,46ZM67.55,18.3C66.654,18.333 65.779,18.026 65.1,17.44C64.447,16.874 64.08,16.044 64.1,15.18C64.087,14.312 64.453,13.479 65.1,12.9C66.512,11.719 68.588,11.719 70,12.9C70.647,13.479 71.013,14.312 71,15.18C71.02,16.044 70.653,16.874 70,17.44C69.324,18.029 68.446,18.337 67.55,18.3ZM83.92,46.58C82.268,46.578 80.632,46.259 79.1,45.64C77.624,45.074 76.242,44.288 75,43.31L77.59,39.76C78.553,40.533 79.607,41.185 80.73,41.7C81.795,42.168 82.947,42.407 84.11,42.4C85.117,42.483 86.122,42.203 86.94,41.61C87.526,41.113 87.86,40.379 87.85,39.61C87.857,39.15 87.705,38.701 87.42,38.34C87.104,37.936 86.714,37.597 86.27,37.34C85.748,37.035 85.203,36.771 84.64,36.55L82.82,35.81C82.05,35.52 81.27,35.19 80.47,34.81C79.698,34.444 78.978,33.976 78.33,33.42C77.71,32.881 77.189,32.238 76.79,31.52C76.373,30.729 76.167,29.844 76.19,28.95C76.137,26.992 76.985,25.114 78.49,23.86C80.275,22.454 82.511,21.743 84.78,21.86C86.297,21.839 87.802,22.132 89.2,22.72C90.413,23.248 91.558,23.919 92.61,24.72L90.07,28.08C89.29,27.497 88.444,27.007 87.55,26.62C86.716,26.23 85.81,26.019 84.89,26C83.957,25.926 83.027,26.188 82.27,26.74C81.727,27.199 81.418,27.879 81.43,28.59C81.418,29.032 81.563,29.465 81.84,29.81C82.141,30.172 82.507,30.474 82.92,30.7C83.419,30.983 83.941,31.224 84.48,31.42C85.07,31.64 85.69,31.87 86.33,32.09C87.13,32.38 87.93,32.71 88.73,33.09C89.515,33.446 90.248,33.907 90.91,34.46C91.57,35.009 92.108,35.691 92.49,36.46C92.911,37.335 93.117,38.299 93.09,39.27C93.098,40.255 92.893,41.231 92.49,42.13C92.087,43.018 91.489,43.804 90.74,44.43C89.887,45.135 88.906,45.668 87.85,46C86.579,46.402 85.253,46.597 83.92,46.58ZM108.11,46.58C106.55,46.593 105.003,46.308 103.55,45.74C100.692,44.625 98.444,42.337 97.38,39.46C96.763,37.794 96.461,36.027 96.49,34.25C96.461,32.481 96.77,30.723 97.4,29.07C97.951,27.631 98.772,26.31 99.82,25.18C100.806,24.14 101.989,23.308 103.3,22.73C104.559,22.167 105.921,21.874 107.3,21.87C108.749,21.838 110.188,22.118 111.52,22.69C112.685,23.213 113.712,24.001 114.52,24.99C115.366,26.039 115.995,27.246 116.37,28.54C116.799,30.004 117.008,31.524 116.99,33.05C116.993,33.564 116.97,34.078 116.92,34.59C116.887,34.976 116.83,35.361 116.75,35.74L101.75,35.74C101.879,37.579 102.672,39.31 103.98,40.61C105.275,41.77 106.973,42.381 108.71,42.31C109.683,42.32 110.65,42.164 111.57,41.85C112.487,41.523 113.365,41.097 114.19,40.58L116.16,44C114.993,44.759 113.737,45.37 112.42,45.82C111.037,46.315 109.579,46.572 108.11,46.58ZM101.82,32L112.28,32C112.366,30.477 111.951,28.966 111.1,27.7C110.223,26.619 108.868,26.035 107.48,26.14C106.099,26.131 104.769,26.666 103.78,27.63C102.643,28.817 101.95,30.361 101.82,32ZM145.58,26.35L178.28,26.35C180.244,26.35 181.86,27.966 181.86,29.93C181.86,31.894 180.244,33.51 178.28,33.51L145.58,33.51C143.616,33.51 142,31.894 142,29.93C142,27.966 143.616,26.35 145.58,26.35Z" style="fill:white;"/>
</svg>
